<?xml version="1.0" encoding="UTF-8" standalone="no"?>
<svg
   id="Capa_1"
   viewBox="0 0 529.99999 529.99998"
   version="1.1"
   width="530"
   height="530"
   xml:space="preserve"
   xmlns:xlink="http://www.w3.org/1999/xlink"
   xmlns="http://www.w3.org/2000/svg"
   xmlns:svg="http://www.w3.org/2000/svg"><defs
     id="defs1"><linearGradient
       id="linearGradient8"><stop
         style="stop-color:#d2d2d2;stop-opacity:1;"
         offset="0"
         id="stop8" /><stop
         style="stop-color:#ffffff;stop-opacity:1;"
         offset="1"
         id="stop9" /></linearGradient><linearGradient
       id="linearGradient15"><stop
         style="stop-color:#005d28;stop-opacity:1;"
         offset="0"
         id="stop15" /><stop
         style="stop-color:#009945;stop-opacity:1"
         offset="1"
         id="stop16" /></linearGradient><style
       id="style1">.cls-1{fill:#009945;}.cls-2{fill:#1f231e;}</style><radialGradient
       xlink:href="#linearGradient15"
       id="radialGradient16"
       cx="364.82578"
       cy="257.41528"
       fx="364.82578"
       fy="257.41528"
       r="256.51999"
       gradientTransform="matrix(1.0543986,0,0,1.0012463,-120.65446,8.170315)"
       gradientUnits="userSpaceOnUse" /><clipPath
       clipPathUnits="userSpaceOnUse"
       id="clipPath1"><rect
         style="fill:none;stroke:#000000;stroke-width:10.56;stroke-linecap:round;stroke-linejoin:bevel;paint-order:stroke markers fill"
         id="rect2"
         width="186.5141"
         height="186.51407"
         x="273.19049"
         y="163.25296"
         ry="24.835493" /></clipPath><linearGradient
       xlink:href="#linearGradient8"
       id="linearGradient7"
       x1="573.59534"
       y1="673.51196"
       x2="573.59534"
       y2="385.78912"
       gradientUnits="userSpaceOnUse"
       gradientTransform="translate(-310.05493,-267.33138)" /><filter
       style="color-interpolation-filters:sRGB"
       id="filter8"
       x="-0.025679538"
       y="-0.044453211"
       width="1.0513591"
       height="1.0889064"><feGaussianBlur
         stdDeviation="3.1737603"
         id="feGaussianBlur8" /></filter></defs><path
     id="path2"
     style="fill:url(#linearGradient7);fill-opacity:1;stroke-width:1.00129;opacity:0"
     d="m 263.73803,39.938145 c -7.46122,0 -13.63086,6.16965 -13.63086,13.63086 0,19.45694 -7.66546,34.30043 -20.2207,44.72266 -12.55525,10.422235 -30.24628,16.281255 -50.11524,16.281255 h -26.74414 c -13.73288,0 -23.87028,5.99229 -30.25391,13.76367 a 5.5522,5.5522 0 0 0 -0.0937,0.11522 c -0.0165,0.0213 -0.0864,0.10707 -0.18359,0.22853 a 5.5522,5.5522 0 0 0 -0.10547,0.13671 c 0.007,-0.009 -0.0992,0.1224 -0.25195,0.32422 -0.002,0.003 -0.004,0.007 -0.006,0.01 -4.60837,6.04219 -7.58984,14.08455 -7.58984,23.88477 v 26.74414 c 0,19.86895 -5.85898,37.55949 -16.281255,50.11523 -10.42228,12.55574 -25.26581,20.22266 -44.72266,20.22266 -7.4612,0 -13.63086,6.16964 -13.63086,13.63087 v 2.49218 c 0,7.46123 6.16803,13.63282 13.63086,13.63282 19.45693,0 34.30042,7.66546 44.72266,20.2207 10.422235,12.55524 16.281255,30.24627 16.281255,50.11523 v 26.74415 c 0,9.80503 2.98764,17.84168 7.59375,23.88867 a 5.5522,5.5522 0 0 0 0.15039,0.19139 c -0.0175,-0.0209 0.0733,0.10011 0.29101,0.36134 -0.0152,-0.0127 0.0924,0.11678 0.23828,0.29297 6.38357,7.75202 16.50055,13.72852 30.22071,13.72852 h 26.74414 c 19.86895,0 37.55999,5.85902 50.11523,16.28125 12.55524,10.42222 20.22069,25.26572 20.22069,44.72265 0,7.4612 6.16803,13.63281 13.63086,13.63281 h 2.49414 c 7.46285,0 13.63086,-6.1716 13.63086,-13.63281 0,-19.45694 7.66548,-34.30043 20.22072,-44.72265 12.55524,-10.42223 30.24627,-16.28125 50.11523,-16.28125 h 26.74414 c 13.73231,0 23.86993,-5.98994 30.25391,-13.76172 a 5.5522,5.5522 0 0 0 0.0469,-0.0547 c 0.11344,-0.14179 0.18186,-0.2327 0.22852,-0.29102 0.12919,-0.15902 0.24959,-0.3124 0.21875,-0.27539 a 5.5522,5.5522 0 0 0 0.15039,-0.18554 c 4.61222,-6.04318 7.5957,-14.0895 7.5957,-23.89453 v -26.74414 c 0,-19.86897 5.85902,-37.56 16.28125,-50.11524 10.42223,-12.55524 25.26572,-20.2207 44.72266,-20.2207 7.46283,0 13.63086,-6.17159 13.63086,-13.63281 a 5.5522,5.5522 0 0 0 -0.01,-0.0234 v -2.46875 c 0,-7.46124 -6.16966,-13.63086 -13.63086,-13.63086 -19.45685,0 -34.30038,-7.66692 -44.72265,-20.22266 -10.42227,-12.55574 -16.28125,-30.24628 -16.28125,-50.11523 v -26.74414 c 0,-9.80504 -2.98771,-17.84171 -7.59375,-23.88867 a 5.5522,5.5522 0 0 0 -0.15235,-0.19141 c 0.0136,0.0163 -0.0997,-0.1268 -0.2207,-0.27539 l -0.0195,-0.0234 c -0.03,-0.0366 -0.0114,-0.0176 -0.0488,-0.0625 -0.0418,-0.0532 -0.075,-0.0991 -0.1582,-0.20312 a 5.5522,5.5522 0 0 0 -0.0469,-0.0547 c -6.38154,-7.76884 -16.51225,-13.76367 -30.2539,-13.76367 h -26.74414 c -19.86896,0 -37.56,-5.85902 -50.11524,-16.281245 -12.55524,-10.42223 -20.2207,-25.26572 -20.2207,-44.72266 0,-7.46121 -6.16965,-13.63086 -13.63086,-13.63086 z" /><path
     class="cls-1"
     d="m 491.57086,251.33246 c -9.82262,-3.49449 -16.37102,-12.80644 -16.37102,-23.22982 v -0.42054 c 0,-41.41317 -22.48888,-77.57959 -55.9218,-96.94443 C 410.95736,125.92149 404.0485,119.0126 399.23231,110.69193 379.85744,77.289045 343.71105,54.810185 302.31792,54.810185 h -0.42055 c -10.4234,0 -19.73532,-6.5484 -23.22982,-16.37102 C 275.09295,28.406275 274.33199,8.160295 265,8.160295 c -9.33197,0 -10.09296,20.256 -13.66755,30.27887 -3.49449,9.82262 -12.80643,16.37102 -23.2298,16.37102 h -0.42055 c -41.39314,0 -77.53954,22.46885 -96.9144,55.881745 -4.82619,8.31067 -11.73506,15.21953 -20.04573,20.04573 -33.432925,19.36485 -55.921795,55.52126 -55.921795,96.94444 v 0.42054 c 0,10.42338 -6.54841,19.73533 -16.37103,23.22982 -10.03287,3.57458 -30.27885,4.33557 -30.27885,13.66755 0,9.33199 20.256,10.09296 30.27885,13.66754 9.82262,3.4945 16.37103,12.80644 16.37103,23.22982 v 0.42055 c 0,41.41314 22.48887,77.57957 55.921785,96.94442 8.32068,4.81619 15.22956,11.72506 20.04573,20.04574 19.37487,33.40288 55.52127,55.88174 96.9144,55.88174 h 0.42055 c 10.42338,0 19.73532,6.54841 23.22981,16.37101 3.57459,10.03287 4.33558,30.27887 13.66755,30.27887 9.33199,0 10.09295,-20.25601 13.66755,-30.27887 3.4945,-9.8226 12.80642,-16.37101 23.22982,-16.37101 h 0.42055 c 41.39313,0 77.53952,-22.46886 96.91439,-55.88174 4.82618,-8.31067 11.73506,-15.21953 20.04572,-20.04574 33.43293,-19.36486 55.92181,-55.52126 55.92181,-96.94442 v -0.42055 c 0,-10.42338 6.54839,-19.73532 16.37101,-23.22982 10.03287,-3.57459 30.27885,-4.33556 30.27885,-13.66754 0,-9.33198 -20.256,-10.09297 -30.27884,-13.66755 z m -7.03905,14.90914 c 0,4.46573 -3.61464,8.08037 -8.08036,8.08037 v 0 c -41.91381,0 -66.55545,33.97359 -66.55545,75.88741 v 26.74435 c 0,8.72118 -2.55326,15.40976 -6.45828,20.52634 -0.10012,0.12011 -0.19023,0.24031 -0.29037,0.36048 -0.0801,0.10012 -0.15019,0.19022 -0.2303,0.29034 -5.52711,6.72866 -13.74765,11.73508 -25.96334,11.73508 h -26.74433 c -41.91382,0 -75.8874,24.64162 -75.8874,66.55543 v 0 c 0,4.46572 -3.61465,8.08038 -8.08038,8.08038 h -2.49319 c -4.46574,0 -8.08037,-3.61466 -8.08037,-8.08038 v 0 c 0,-41.91381 -33.97362,-66.55543 -75.88742,-66.55543 h -26.74435 c -12.22568,0 -20.43621,-5.00643 -25.96332,-11.73508 -0.0801,-0.09 -0.15018,-0.19022 -0.2303,-0.29034 -0.10012,-0.12014 -0.19023,-0.24032 -0.29037,-0.36048 -3.90502,-5.12658 -6.45828,-11.80516 -6.45828,-20.52634 v -26.74435 c 0,-41.91382 -24.641655,-75.88741 -66.555455,-75.88741 v 0 c -4.46572,0 -8.08037,-3.61464 -8.08037,-8.08037 v -2.4932 c 0,-4.46574 3.61465,-8.08037 8.08037,-8.08037 v 0 c 41.9138,0 66.555455,-33.97361 66.555455,-75.88742 v -26.74435 c 0,-8.72117 2.55326,-15.40976 6.45828,-20.52634 0.0901,-0.12012 0.19025,-0.2403 0.28037,-0.36045 0.0801,-0.10012 0.1602,-0.20026 0.23029,-0.29037 5.5271,-6.72865 13.74765,-11.73507 25.96332,-11.73507 h 26.74435 c 41.9138,0 75.88739,-24.641615 75.88739,-66.555435 v 0 c 0,-4.46573 3.61466,-8.08039 8.08039,-8.08039 h 2.49319 c 4.46573,0 8.08037,3.61466 8.08037,8.08039 v 0 c 0,41.91382 33.97361,66.555435 75.88742,66.555435 h 26.74434 c 12.22569,0 20.43623,5.00642 25.96333,11.73507 0.0801,0.10012 0.15018,0.19023 0.23029,0.29037 0.10013,0.12013 0.19025,0.2403 0.29039,0.36045 3.90498,5.12659 6.45827,11.80517 6.45827,20.52634 v 26.74435 c 0,41.9138 24.64164,75.88742 66.55545,75.88742 v 0 c 4.46571,0 8.08036,3.61463 8.08036,8.08037 v 2.4932 z"
     id="path15"
     style="fill:url(#radialGradient16);fill-opacity:1;stroke:none;stroke-width:11.328;stroke-dasharray:none;paint-order:stroke fill markers;opacity:0.35" /><text
     xml:space="preserve"
     style="font-style:normal;font-variant:normal;font-weight:normal;font-stretch:normal;font-size:85.3333px;line-height:1.2;font-family:'FF Shamel Family';-inkscape-font-specification:'FF Shamel Family, Normal';font-variant-ligatures:normal;font-variant-caps:normal;font-variant-numeric:normal;font-variant-east-asian:normal;text-align:center;text-anchor:middle;fill:#000000;fill-opacity:1;stroke-width:9.44882;stroke-linecap:round;stroke-linejoin:bevel;paint-order:stroke markers fill"
     x="264.87201"
     y="197.45154"
     id="text5"><tspan
       id="tspan5"
       x="264.87201"
       y="197.45154">جمع</tspan><tspan
       x="264.87201"
       y="299.8515"
       id="tspan6">الصحاب</tspan></text><text
     xml:space="preserve"
     style="font-style:normal;font-variant:normal;font-weight:normal;font-stretch:normal;font-size:85.3333px;line-height:1.2;font-family:'FF Shamel Family';-inkscape-font-specification:'FF Shamel Family, Normal';font-variant-ligatures:normal;font-variant-caps:normal;font-variant-numeric:normal;font-variant-east-asian:normal;text-align:center;text-anchor:middle;mix-blend-mode:normal;fill:#000000;fill-opacity:0.296044;stroke-width:9.44882;stroke-linecap:round;stroke-linejoin:bevel;paint-order:stroke markers fill;filter:url(#filter8)"
     x="264.87201"
     y="203.45154"
     id="text8"><tspan
       id="tspan7"
       x="264.87201"
       y="203.45154">جمع</tspan><tspan
       x="264.87201"
       y="305.8515"
       id="tspan8">الصحاب</tspan></text></svg>
