<?xml version="1.0" standalone="no"?>
<!DOCTYPE svg PUBLIC "-//W3C//DTD SVG 20010904//EN"
 "http://www.w3.org/TR/2001/REC-SVG-20010904/DTD/svg10.dtd">
<svg version="1.0" xmlns="http://www.w3.org/2000/svg"
 width="700.000000pt" height="700.000000pt" viewBox="0 0 700.000000 700.000000"
 preserveAspectRatio="xMidYMid meet">
<metadata>
Created by potrace 1.14, written by Peter Selinger 2001-2017
</metadata>
<g transform="translate(0.000000,700.000000) scale(0.100000,-0.100000)"
fill="#000000" stroke="none">
<path d="M3458 6989 c-36 -20 -68 -98 -107 -258 -46 -186 -77 -247 -155 -301
-71 -48 -119 -61 -277 -70 -170 -11 -263 -28 -414 -78 -250 -82 -492 -244
-661 -440 -37 -42 -105 -135 -152 -207 -106 -161 -165 -221 -317 -320 -66 -43
-142 -96 -170 -118 -277 -224 -467 -538 -540 -891 -9 -44 -20 -145 -25 -225
-9 -158 -22 -206 -70 -277 -54 -78 -115 -109 -299 -154 -216 -53 -271 -83
-271 -148 0 -67 58 -99 269 -151 186 -46 247 -77 301 -155 48 -71 61 -119 70
-277 18 -295 96 -535 248 -764 127 -193 258 -320 477 -463 163 -107 220 -164
327 -327 102 -156 191 -261 296 -351 271 -232 571 -352 932 -374 161 -9 222
-26 289 -79 70 -56 98 -113 142 -295 44 -180 78 -250 124 -262 80 -20 120 39
170 249 42 180 63 226 127 289 70 68 131 88 309 98 290 18 537 98 764 248 193
127 320 258 463 477 107 163 164 220 328 327 269 175 453 380 579 643 87 184
131 361 145 585 9 161 26 222 79 289 56 70 113 98 295 142 225 56 282 93 262
174 -12 46 -82 80 -263 124 -188 46 -248 77 -303 155 -48 71 -61 119 -70 277
-14 223 -58 402 -145 584 -126 264 -310 468 -579 643 -164 107 -221 164 -328
327 -143 219 -270 350 -463 477 -228 151 -472 230 -764 248 -162 9 -223 26
-290 79 -70 56 -99 114 -142 293 -40 163 -72 238 -109 258 -24 13 -60 12 -82
-1z m113 -515 c39 -20 59 -68 59 -141 0 -139 64 -333 150 -458 101 -146 289
-279 483 -340 147 -47 232 -56 572 -63 l320 -7 67 -32 c94 -44 160 -109 206
-202 l37 -75 6 -320 c9 -413 27 -521 125 -721 136 -280 402 -463 699 -481 50
-3 105 -10 123 -16 43 -13 72 -60 72 -116 0 -91 -49 -132 -160 -132 -75 0
-193 -24 -279 -56 -219 -82 -405 -279 -497 -522 -64 -170 -76 -261 -83 -617
-7 -300 -9 -324 -30 -378 -42 -108 -131 -195 -245 -240 -46 -19 -82 -21 -376
-28 -240 -5 -347 -11 -408 -23 -463 -94 -747 -388 -782 -812 -12 -151 -36
-184 -130 -184 -94 0 -119 35 -131 179 -5 58 -16 133 -24 165 -76 289 -289
506 -597 609 -152 51 -221 59 -568 66 -303 7 -329 9 -382 30 -109 42 -197 130
-240 239 -20 53 -22 79 -29 377 -7 352 -18 440 -79 608 -123 339 -409 563
-745 583 -49 3 -105 10 -123 16 -96 29 -96 207 0 236 18 6 72 13 119 16 412
25 721 330 805 794 11 60 18 186 22 408 l7 320 37 75 c46 93 112 158 206 202
l67 32 315 6 c173 4 347 12 385 18 355 59 614 236 741 506 51 109 73 195 83
325 8 104 24 144 64 160 35 14 106 11 138 -6z"/>
</g>
</svg>
